custom-analysis
version=1
nRows=17
nColumns=38
inDegrees=no

This file contains tibia displacement and acting force.

Units are S.I. units (seconds, meters, Newtons, ...)
Angles are in degrees.

endheader
time	APT	SIT	knee_angle	aACL_R_force	pACL_R_force	aPCL_R_force	pPCL_R_force	aMCL_R_force	aLCL_R_force	aPCL_L_force	pPCL_L_force	aMCL_L_force	aLCL_L_force	aACL_R_length	pACL_R_length	aPCL_R_length	pPCL_R_length	aMCL_R_length	aLCL_R_length	aPCL_L_length	pPCL_L_length	aMCL_L_length	aLCL_L_length	aACL_R_strain	pACL_R_strain	aPCL_R_strain	pPCL_R_strain	aMCL_R_strain	aLCL_R_strain	aPCL_L_strain	pPCL_L_strain	aMCL_L_strain	aLCL_L_strain	femur_lat_meniscii_force_r	femur_med_meniscii_force_r	femur_lat_tibia_force_r	femur_med_tibia_force_r
      0.00032627	      0.00001962	      0.00009935	      1.67127785	    154.39884454	    266.39263585	      0.00000000	    -13.09948481	   -262.04376346	    915.83160477	   -204.04398854	   2024.22646236	   -175.78093186	    102.02989001	      0.03835983	      0.03055548	      0.02529472	      0.02708712	      0.07416690	      0.06223111	      0.02689964	      0.03356690	      0.07918721	      0.05722521	      0.21136317	      0.27000158	     -0.05550298	      0.10160931	      0.00652321	      0.17218567	      0.00442434	      0.36513646	      0.07465420	      0.07789458	      0.00000000	      0.00000000	      0.00000000	      0.00000000
      0.00059610	      0.00002322	      0.00021156	      1.67550230	    112.41737603	    221.37564167	      0.00000000	    -86.19011354	   -312.84246087	    827.73600517	      0.00000000	   1691.64984855	   -257.49126038	    -25.24140674	      0.03826503	      0.03046329	      0.02521502	      0.02698432	      0.07405940	      0.06211099	      0.02671866	      0.03336452	      0.07906075	      0.05708855	      0.20836940	      0.26616968	     -0.05847893	      0.09742862	      0.00506429	      0.16992311	     -0.00233336	      0.35690569	      0.07293801	      0.07532031	      0.00000000	      0.00000000	      0.00000000	      0.00000000
      0.00101609	      0.00001208	      0.00041511	      1.68132297	     63.23253522	    165.32447151	      0.00000000	   -169.70140715	   -364.26597639	    719.03446569	      0.00000000	   1216.13040553	   -341.71917007	   -177.32198742	      0.03807509	      0.03027629	      0.02509015	      0.02680446	      0.07386229	      0.06189053	      0.02633037	      0.03291837	      0.07881913	      0.05682410	      0.20237120	      0.25839739	     -0.06314143	      0.09011397	      0.00238935	      0.16577052	     -0.01683204	      0.33876124	      0.06965897	      0.07033923	      0.00000000	      0.00000000	      0.00000000	      0.00000000
      0.00259937	     -0.00011630	      0.00136792	      1.69899923	    -65.50859362	     -1.28936671	      0.00000000	   -346.85981154	      0.00000000	    403.77773366	      0.00000000	    119.74760279	   -336.12769822	   -311.85955112	      0.03709239	      0.02927245	      0.02466273	      0.02605250	      0.07293892	      0.06084828	      0.02437514	      0.03061605	      0.07782168	      0.05570338	      0.17133858	      0.21667397	     -0.07910144	      0.05953253	     -0.01014174	      0.14613875	     -0.08983971	      0.24512798	      0.05612242	      0.04922934	      0.00000000	      0.00000000	      0.00000000	      0.00000000
      0.00418266	     -0.00022427	      0.00243401	      1.71794003	    -94.87540138	    -79.20578400	      0.00000000	   -312.87764508	      0.00000000	    236.94589926	      0.00000000	   -314.98186748	   -164.05415162	   -176.58627892	      0.03599265	      0.02807745	      0.02434515	      0.02537424	      0.07193575	      0.05969069	      0.02262171	      0.02848444	      0.07714392	      0.05490979	      0.13660998	      0.16700501	     -0.09095963	      0.03194809	     -0.02375585	      0.12433438	     -0.15531248	      0.15843722	      0.04692452	      0.03428123	      0.00000000	      0.00000000	      0.00000000	      0.00000000
      0.00459532	     -0.00022619	      0.00270607	      1.72486785	    -93.34796317	    -90.11470347	      0.00000000	   -288.82680905	      0.00000000	    204.35255102	      0.00000000	   -368.39233885	   -120.23400798	   -134.73723229	      0.03573087	      0.02777688	      0.02427949	      0.02523180	      0.07169048	      0.05939795	      0.02225787	      0.02803343	      0.07703626	      0.05477627	      0.12834339	      0.15451235	     -0.09341128	      0.02615537	     -0.02708447	      0.11882022	     -0.16889811	      0.14009503	      0.04546354	      0.03176632	      0.00000000	      0.00000000	      0.00000000	      0.00000000
      0.00665861	     -0.00002155	      0.00400645	      1.77814195	    -57.44392029	   -108.05639624	      0.00000000	   -155.19467740	      0.00000000	     60.90523252	      0.00000000	   -351.85263975	     30.44425641	     23.97827963	      0.03467599	      0.02646079	      0.02399787	      0.02472708	      0.07060065	      0.05802390	      0.02097304	      0.02642952	      0.07681743	      0.05444356	      0.09503133	      0.09981045	     -0.10392689	      0.00562858	     -0.04187458	      0.09293857	     -0.21687320	      0.07486549	      0.04249378	      0.02549926	      0.00000000	      0.00000000	      0.00000000	      0.00000000
      0.00854121	      0.00047617	      0.00512305	      1.85705470	     -9.76799322	    -91.42088348	      0.00000000	      0.00000000	      0.00000000	    -71.30806131	      0.00000000	   -250.82342301	     73.01028212	     70.58245264	      0.03411498	      0.02560671	      0.02375647	      0.02451943	      0.06978960	      0.05689519	      0.02030843	      0.02562693	      0.07685944	      0.05438932	      0.07731506	      0.06431164	     -0.11294073	     -0.00281630	     -0.05288135	      0.07167832	     -0.24168945	      0.04222490	      0.04306389	      0.02447762	      0.00000000	      0.00000000	      0.00000000	      0.00000000
      0.01061405	      0.00128092	      0.00633683	      1.97451919	     39.79655471	    -52.41802040	      0.00000000	      0.00000000	      0.00000000	   -210.56943156	      0.00000000	   -175.36305918	     70.81718843	     61.83456371	      0.03385970	      0.02504898	      0.02345632	      0.02444017	      0.06901223	      0.05573384	      0.01982264	      0.02510094	      0.07694886	      0.05437223	      0.06925369	      0.04113063	     -0.12414806	     -0.00603988	     -0.06343109	      0.04980307	     -0.25982856	      0.02083306	      0.04427731	      0.02415583	      0.00000000	      0.00000000	      0.00000000	      0.00000000
      0.01095226	      0.00142865	      0.00653259	      1.99601596	     46.76271983	    -46.15029337	      0.00000000	      0.00000000	      0.00000000	   -229.40951407	      0.00000000	   -166.05501740	     68.60329702	     57.74103395	      0.03384652	      0.02498995	      0.02341466	      0.02444537	      0.06889530	      0.05555458	      0.01975562	      0.02503586	      0.07696076	      0.05436652	      0.06883745	      0.03867688	     -0.12570382	     -0.00582815	     -0.06501790	      0.04642659	     -0.26233106	      0.01818629	      0.04443893	      0.02404820	      0.00000000	      0.00000000	      0.00000000	      0.00000000
      0.01264334	      0.00219906	      0.00749845	      2.11007913	     76.27988470	    -20.01804356	      0.00000000	      0.00000000	      0.00000000	   -307.87109260	      0.00000000	   -126.83772163	     55.62165339	     32.92125721	      0.03386412	      0.02478971	      0.02330034	      0.02457714	      0.06834726	      0.05471309	      0.01944770	      0.02476732	      0.07700109	      0.05431720	      0.06939318	      0.03035435	     -0.12997240	     -0.00046933	     -0.07245547	      0.03057627	     -0.27382906	      0.00726525	      0.04498612	      0.02311914	      0.00000000	      0.00000000	      0.00000000	      0.00000000
      0.01366772	      0.00267197	      0.00807808	      2.18311528	     81.47672401	     -9.84038859	      0.00000000	    125.85196347	      0.00000000	   -364.07317626	      0.00000000	   -106.90276309	     48.06937420	     16.83722827	      0.03391675	      0.02472518	      0.02330712	      0.02472402	      0.06803143	      0.05423990	      0.01927561	      0.02464053	      0.07700988	      0.05427033	      0.07105514	      0.02767193	     -0.12971923	      0.00550409	     -0.07674162	      0.02166319	     -0.28025462	      0.00210885	      0.04510553	      0.02223640	      0.00000000	      0.00000000	      0.00000000	      0.00000000
      0.01469211	      0.00313400	      0.00866509	      2.25844258	     84.44351848	     -1.96165577	      0.00000000	    123.20279932	      0.00000000	   -397.97335570	      0.00000000	      0.00000000	     30.52429199	     -9.30939449	      0.03396994	      0.02468653	      0.02331850	      0.02485572	      0.06770180	      0.05376774	      0.01910663	      0.02452299	      0.07700130	      0.05420654	      0.07273492	      0.02606570	     -0.12929440	      0.01086030	     -0.08121497	      0.01276949	     -0.28656449	     -0.00267138	      0.04498908	      0.02103487	      0.00000000	      0.00000000	      0.00000000	      0.00000000
      0.01571649	      0.00358355	      0.00925430	      2.33581125	     85.01814984	      3.04007362	      0.00000000	    121.63247730	      0.00000000	   -411.63899996	      0.00000000	      0.00000000	     17.38358230	    -30.43392100	      0.03402129	      0.02466630	      0.02334466	      0.02498182	      0.06736172	      0.05330222	      0.01893564	      0.02439578	      0.07697090	      0.05412400	      0.07435648	      0.02522491	     -0.12831759	      0.01598864	     -0.08583020	      0.00400102	     -0.29294897	     -0.00784493	      0.04457644	      0.01948016	      0.00000000	      0.00000000	      0.00000000	      0.00000000
      0.01632192	      0.00384269	      0.00960371	      2.38242403	     80.35346235	      1.64560503	      0.00000000	    106.51666285	      0.00000000	      0.00000000	      0.00000000	      0.00000000	     12.19701708	    -39.79329052	      0.03404839	      0.02465971	      0.02336661	      0.02505276	      0.06715474	      0.05302937	      0.01883527	      0.02431858	      0.07694627	      0.05406983	      0.07521227	      0.02495093	     -0.12749801	      0.01887399	     -0.08863923	     -0.00113840	     -0.29669684	     -0.01098468	      0.04424224	      0.01845966	      0.00000000	      0.00000000	      0.00000000	      0.00000000
      0.01692734	      0.00409206	      0.00997459	      2.42955359	     62.05579726	    -10.65332436	      0.00000000	     46.50617860	      0.00000000	      0.00000000	      0.00000000	      0.00000000	      8.40441458	    -47.11324935	      0.03405229	      0.02463999	      0.02337140	      0.02509226	      0.06692105	      0.05273041	      0.01873631	      0.02424115	      0.07691852	      0.05401344	      0.07533547	      0.02413113	     -0.12731906	      0.02048012	     -0.09181065	     -0.00676965	     -0.30039203	     -0.01413348	      0.04386556	      0.01739766	      0.00000000	      0.00000000	      0.00000000	      0.00000000
      0.01995448	      0.00532647	      0.01221150	      2.68282673	     29.22055229	    -16.97246530	      0.00000000	    -33.96534107	      0.00000000	      0.00000000	      0.00000000	      0.00000000	      1.88384756	    -62.56739789	      0.03389104	      0.02447740	      0.02326466	      0.02503595	      0.06539323	      0.05084009	      0.01827717	      0.02387224	      0.07676350	      0.05373073	      0.07024337	      0.01737336	     -0.13130471	      0.01819029	     -0.11254477	     -0.04237563	     -0.31753623	     -0.02913691	      0.04176186	      0.01207241	      0.00000000	      0.00000000	      0.00000000	      0.00000000
